<svg version="1.0" xmlns="http://www.w3.org/2000/svg"
 width="16px" height="16px" viewBox="0 0 256.000000 256.000000"
 preserveAspectRatio="xMidYMid meet">
<g>
    <circle cx="128" cy="128" r="128" fill="#5DD38C"/>
</g>
<g transform="translate(0.000000,256.000000) scale(0.100000,-0.100000)"
fill="#000" stroke="none">
<path d="M710 1285 l0 -586 83 3 82 3 3 212 2 212 373 3 372 3 61 28 c146 68
221 221 194 393 -28 173 -136 278 -315 304 -39 5 -247 10 -462 10 l-393 0 0
-585z m865 415 c57 -27 85 -52 105 -91 65 -125 12 -281 -106 -317 -29 -8 -139
-12 -368 -12 l-326 0 0 221 0 220 333 -3 c262 -3 338 -6 362 -18z"/>
<path d="M1660 785 l0 -85 80 0 80 0 0 85 0 85 -80 0 -80 0 0 -85z"/>
</g>
</svg>
