<svg width="133" height="20" viewBox="0 0 133 20" fill="none" xmlns="http://www.w3.org/2000/svg">
<g clip-path="url(#clip0_2848_9958)">
<path d="M4.72418 11.856V18H2.37218V1.2H13.5082C14.3882 1.2 15.1882 1.32 15.9082 1.56C16.6282 1.784 17.2362 2.128 17.7322 2.592C18.2442 3.04 18.6362 3.608 18.9082 4.296C19.1962 4.984 19.3402 5.784 19.3402 6.696C19.3082 7.576 19.1482 8.344 18.8602 9C18.5722 9.656 18.1722 10.192 17.6602 10.608C17.1642 11.024 16.5642 11.336 15.8602 11.544C15.1562 11.752 14.3722 11.856 13.5082 11.856H4.72418ZM4.72418 9.744H13.4122C14.4522 9.744 15.2842 9.472 15.9082 8.928C16.5322 8.384 16.8442 7.592 16.8442 6.552C16.8442 5.528 16.5322 4.736 15.9082 4.176C15.2842 3.6 14.4522 3.312 13.4122 3.312H4.72418V9.744ZM26.0036 11.856V18H23.6516V1.2H34.8596C35.7396 1.2 36.5396 1.32 37.2596 1.56C37.9796 1.784 38.5876 2.128 39.0836 2.592C39.5956 3.04 39.9876 3.608 40.2596 4.296C40.5476 4.984 40.6916 5.784 40.6916 6.696C40.6436 8.04 40.3156 9.104 39.7076 9.888C39.1156 10.672 38.2916 11.224 37.2356 11.544L40.9556 17.976H38.1956L34.7156 11.856H26.0036ZM26.0036 9.744H34.0676C35.4596 9.744 36.4916 9.472 37.1636 8.928C37.8516 8.384 38.1956 7.592 38.1956 6.552C38.1956 5.528 37.8756 4.736 37.2356 4.176C36.5956 3.6 35.6276 3.312 34.3316 3.312H26.0036V9.744ZM44.7912 9.432C44.8392 7.912 45.1032 6.6 45.5832 5.496C46.0792 4.392 46.7512 3.488 47.5992 2.784C48.4632 2.064 49.4792 1.536 50.6472 1.2C51.8312 0.847999 53.1432 0.671999 54.5832 0.671999C56.0232 0.671999 57.3272 0.855999 58.4952 1.224C59.6792 1.576 60.6952 2.112 61.5432 2.832C62.4072 3.552 63.0792 4.464 63.5592 5.568C64.0552 6.656 64.3272 7.944 64.3752 9.432V9.864C64.3272 11.352 64.0552 12.648 63.5592 13.752C63.0792 14.84 62.4072 15.736 61.5432 16.44C60.6952 17.144 59.6792 17.664 58.4952 18C57.3272 18.352 56.0232 18.528 54.5832 18.528C53.1432 18.528 51.8312 18.352 50.6472 18C49.4792 17.664 48.4632 17.144 47.5992 16.44C46.7512 15.72 46.0792 14.816 45.5832 13.728C45.1032 12.64 44.8392 11.352 44.7912 9.864V9.432ZM54.5832 2.784C53.4792 2.784 52.4712 2.928 51.5592 3.216C50.6632 3.504 49.8952 3.936 49.2552 4.512C48.6312 5.072 48.1432 5.784 47.7912 6.648C47.4552 7.496 47.2872 8.496 47.2872 9.648C47.2872 10.752 47.4552 11.728 47.7912 12.576C48.1432 13.408 48.6312 14.112 49.2552 14.688C49.8952 15.248 50.6632 15.68 51.5592 15.984C52.4712 16.272 53.4792 16.416 54.5832 16.416C55.6872 16.416 56.6872 16.272 57.5832 15.984C58.4952 15.696 59.2632 15.272 59.8872 14.712C60.5272 14.136 61.0152 13.432 61.3512 12.6C61.7032 11.752 61.8792 10.768 61.8792 9.648C61.8792 8.544 61.7032 7.568 61.3512 6.72C61.0152 5.872 60.5272 5.16 59.8872 4.584C59.2632 3.992 58.4952 3.544 57.5832 3.24C56.6872 2.936 55.6872 2.784 54.5832 2.784ZM67.7347 9.432C67.7827 7.912 68.0467 6.6 68.5267 5.496C69.0227 4.392 69.6947 3.488 70.5427 2.784C71.4067 2.064 72.4227 1.536 73.5907 1.2C74.7747 0.847999 76.0867 0.671999 77.5267 0.671999C78.9667 0.671999 80.2707 0.855999 81.4387 1.224C82.6227 1.576 83.6387 2.112 84.4867 2.832C85.3507 3.552 86.0227 4.464 86.5027 5.568C86.9987 6.656 87.2707 7.944 87.3187 9.432V9.864C87.2707 11.352 86.9987 12.648 86.5027 13.752C86.0227 14.84 85.3507 15.736 84.4867 16.44C83.6387 17.144 82.6227 17.664 81.4387 18C80.2707 18.352 78.9667 18.528 77.5267 18.528C76.0867 18.528 74.7747 18.352 73.5907 18C72.4227 17.664 71.4067 17.144 70.5427 16.44C69.6947 15.72 69.0227 14.816 68.5267 13.728C68.0467 12.64 67.7827 11.352 67.7347 9.864V9.432ZM77.5267 2.784C76.4227 2.784 75.4147 2.928 74.5027 3.216C73.6067 3.504 72.8387 3.936 72.1987 4.512C71.5747 5.072 71.0867 5.784 70.7347 6.648C70.3987 7.496 70.2307 8.496 70.2307 9.648C70.2307 10.752 70.3987 11.728 70.7347 12.576C71.0867 13.408 71.5747 14.112 72.1987 14.688C72.8387 15.248 73.6067 15.68 74.5027 15.984C75.4147 16.272 76.4227 16.416 77.5267 16.416C78.6307 16.416 79.6307 16.272 80.5267 15.984C81.4387 15.696 82.2067 15.272 82.8307 14.712C83.4707 14.136 83.9587 13.432 84.2947 12.6C84.6467 11.752 84.8227 10.768 84.8227 9.648C84.8227 8.544 84.6467 7.568 84.2947 6.72C83.9587 5.872 83.4707 5.16 82.8307 4.584C82.2067 3.992 81.4387 3.544 80.5267 3.24C79.6307 2.936 78.6307 2.784 77.5267 2.784ZM93.9901 10.68V18H91.6381V1.2H106.782V3.312H93.9901V8.568H104.358V10.68H93.9901ZM126.503 15.888V18H111.863V15.888H117.983V13.032L109.895 1.2H112.751L119.231 10.752L125.759 1.2H128.591L120.335 13.128V15.888H126.503Z" fill="black"/>
<path d="M4.72418 11.856V11.456H4.32418V11.856H4.72418ZM4.72418 18V18.4H5.12418V18H4.72418ZM2.37218 18H1.97218V18.4H2.37218V18ZM2.37218 1.2V0.799999H1.97218V1.2H2.37218ZM15.9082 1.56L15.7817 1.93955L15.7894 1.94194L15.9082 1.56ZM17.7322 2.592L17.4588 2.88427L17.4688 2.89303L17.7322 2.592ZM18.9082 4.296L18.5361 4.44309L18.5392 4.45045L18.9082 4.296ZM19.3402 6.696L19.7399 6.71054L19.7402 6.70327V6.696H19.3402ZM18.8602 9L18.4939 8.8392L18.8602 9ZM17.6602 10.608L17.4079 10.2975L17.4031 10.3015L17.6602 10.608ZM15.8602 11.544L15.7468 11.1604L15.7468 11.1604L15.8602 11.544ZM4.72418 9.744H4.32418V10.144H4.72418V9.744ZM15.9082 8.928L15.6453 8.62649V8.62649L15.9082 8.928ZM15.9082 4.176L15.6368 4.46995L15.641 4.4737L15.9082 4.176ZM4.72418 3.312V2.912H4.32418V3.312H4.72418ZM4.32418 11.856V18H5.12418V11.856H4.32418ZM4.72418 17.6H2.37218V18.4H4.72418V17.6ZM2.77218 18V1.2H1.97218V18H2.77218ZM2.37218 1.6H13.5082V0.799999H2.37218V1.6ZM13.5082 1.6C14.3519 1.6 15.1084 1.71504 15.7817 1.93947L16.0347 1.18053C15.268 0.924958 14.4245 0.799999 13.5082 0.799999V1.6ZM15.7894 1.94194C16.4582 2.15002 17.0116 2.46567 17.4589 2.88411L18.0054 2.29989C17.4607 1.79033 16.7982 1.41798 16.027 1.17806L15.7894 1.94194ZM17.4688 2.89303C17.9287 3.29549 18.2855 3.80901 18.5362 4.44306L19.2802 4.14894C18.9868 3.40699 18.5596 2.7845 17.9956 2.29097L17.4688 2.89303ZM18.5392 4.45045C18.8027 5.07994 18.9402 5.82554 18.9402 6.696H19.7402C19.7402 5.74246 19.5897 4.88806 19.2772 4.14154L18.5392 4.45045ZM18.9404 6.68146C18.9099 7.52223 18.7576 8.23866 18.4939 8.8392L19.2264 9.1608C19.5388 8.44934 19.7065 7.62977 19.7399 6.71054L18.9404 6.68146ZM18.4939 8.8392C18.2292 9.44208 17.8664 9.92504 17.4079 10.2976L17.9124 10.9184C18.4779 10.459 18.9151 9.86992 19.2264 9.1608L18.4939 8.8392ZM17.4031 10.3015C16.9545 10.6778 16.4052 10.9659 15.7468 11.1604L15.9735 11.9276C16.7232 11.7061 17.3738 11.3702 17.9172 10.9145L17.4031 10.3015ZM15.7468 11.1604C15.0855 11.3558 14.3404 11.456 13.5082 11.456V12.256C14.404 12.256 15.2269 12.1482 15.9735 11.9276L15.7468 11.1604ZM13.5082 11.456H4.72418V12.256H13.5082V11.456ZM4.72418 10.144H13.4122V9.344H4.72418V10.144ZM13.4122 10.144C14.5232 10.144 15.457 9.85203 16.171 9.22951L15.6453 8.62649C15.1114 9.09197 14.3811 9.344 13.4122 9.344V10.144ZM16.171 9.22951C16.9037 8.59081 17.2442 7.67565 17.2442 6.552H16.4442C16.4442 7.50835 16.1607 8.17719 15.6453 8.62649L16.171 9.22951ZM17.2442 6.552C17.2442 5.44164 16.9022 4.53063 16.1753 3.8783L15.641 4.4737C16.1621 4.94137 16.4442 5.61436 16.4442 6.552H17.2442ZM16.1795 3.88208C15.4658 3.22332 14.529 2.912 13.4122 2.912V3.712C14.3754 3.712 15.1025 3.97668 15.6369 4.46992L16.1795 3.88208ZM13.4122 2.912H4.72418V3.712H13.4122V2.912ZM4.32418 3.312V9.744H5.12418V3.312H4.32418ZM26.0036 11.856V11.456H25.6036V11.856H26.0036ZM26.0036 18V18.4H26.4036V18H26.0036ZM23.6516 18H23.2516V18.4H23.6516V18ZM23.6516 1.2V0.799999H23.2516V1.2H23.6516ZM37.2596 1.56L37.133 1.93955L37.1407 1.94194L37.2596 1.56ZM39.0836 2.592L38.8101 2.88427L38.8202 2.89303L39.0836 2.592ZM40.2596 4.296L39.8875 4.44309L39.8906 4.45045L40.2596 4.296ZM40.6916 6.696L41.0913 6.71028L41.0916 6.70314V6.696H40.6916ZM39.7076 9.888L39.3914 9.64285L39.3883 9.64696L39.7076 9.888ZM37.2356 11.544L37.1196 11.1612L36.6367 11.3075L36.8893 11.7443L37.2356 11.544ZM40.9556 17.976V18.376H41.649L41.3018 17.7757L40.9556 17.976ZM38.1956 17.976L37.8478 18.1737L37.9629 18.376H38.1956V17.976ZM34.7156 11.856L35.0633 11.6583L34.9483 11.456H34.7156V11.856ZM26.0036 9.744H25.6036V10.144H26.0036V9.744ZM37.1636 8.928L36.9155 8.61421L36.9119 8.6171L37.1636 8.928ZM37.2356 4.176L36.9679 4.47335L36.9722 4.47703L37.2356 4.176ZM26.0036 3.312V2.912H25.6036V3.312H26.0036ZM25.6036 11.856V18H26.4036V11.856H25.6036ZM26.0036 17.6H23.6516V18.4H26.0036V17.6ZM24.0516 18V1.2H23.2516V18H24.0516ZM23.6516 1.6H34.8596V0.799999H23.6516V1.6ZM34.8596 1.6C35.7033 1.6 36.4598 1.71504 37.1331 1.93947L37.3861 1.18053C36.6193 0.924958 35.7758 0.799999 34.8596 0.799999V1.6ZM37.1407 1.94194C37.8096 2.15002 38.363 2.46567 38.8103 2.88411L39.3568 2.29989C38.8121 1.79033 38.1496 1.41798 37.3784 1.17806L37.1407 1.94194ZM38.8202 2.89303C39.2801 3.29549 39.6369 3.80901 39.8876 4.44306L40.6315 4.14894C40.3382 3.40699 39.911 2.7845 39.347 2.29097L38.8202 2.89303ZM39.8906 4.45045C40.1541 5.07994 40.2916 5.82554 40.2916 6.696H41.0916C41.0916 5.74246 40.941 4.88806 40.6285 4.14154L39.8906 4.45045ZM40.2918 6.68172C40.2458 7.97118 39.9326 8.94505 39.3915 9.64287L40.0236 10.1331C40.6985 9.26295 41.0414 8.10881 41.0913 6.71028L40.2918 6.68172ZM39.3883 9.64696C38.8536 10.3552 38.105 10.8626 37.1196 11.1612L37.3516 11.9268C38.4782 11.5854 39.3775 10.9888 40.0268 10.129L39.3883 9.64696ZM36.8893 11.7443L40.6093 18.1763L41.3018 17.7757L37.5818 11.3437L36.8893 11.7443ZM40.9556 17.576H38.1956V18.376H40.9556V17.576ZM38.5433 17.7783L35.0633 11.6583L34.3678 12.0537L37.8478 18.1737L38.5433 17.7783ZM34.7156 11.456H26.0036V12.256H34.7156V11.456ZM26.0036 10.144H34.0676V9.344H26.0036V10.144ZM34.0676 10.144C35.4991 10.144 36.64 9.86648 37.4152 9.2389L36.9119 8.6171C36.3431 9.07752 35.42 9.344 34.0676 9.344V10.144ZM37.4117 9.24177C38.2139 8.60744 38.5956 7.68892 38.5956 6.552H37.7956C37.7956 7.49508 37.4892 8.16056 36.9155 8.61423L37.4117 9.24177ZM38.5956 6.552C38.5956 5.43838 38.2434 4.52637 37.499 3.87497L36.9722 4.47703C37.5077 4.94563 37.7956 5.61762 37.7956 6.552H38.5956ZM37.5031 3.87868C36.7602 3.21006 35.6779 2.912 34.3316 2.912V3.712C35.5773 3.712 36.4309 3.98994 36.968 4.47332L37.5031 3.87868ZM34.3316 2.912H26.0036V3.712H34.3316V2.912ZM25.6036 3.312V9.744H26.4036V3.312H25.6036ZM44.7912 9.432L44.3912 9.41937V9.432H44.7912ZM45.5832 5.496L45.2184 5.33206L45.2164 5.33651L45.5832 5.496ZM47.5992 2.784L47.8547 3.09176L47.8553 3.09129L47.5992 2.784ZM50.6472 1.2L50.7578 1.58442L50.7612 1.58341L50.6472 1.2ZM58.4952 1.224L58.375 1.60556L58.3813 1.60741L58.4952 1.224ZM61.5432 2.832L61.2843 3.13693L61.2872 3.13929L61.5432 2.832ZM63.5592 5.568L63.1924 5.72751L63.1953 5.73392L63.5592 5.568ZM64.3752 9.432H64.7755L64.775 9.4191L64.3752 9.432ZM64.3752 9.864L64.7752 9.8769V9.864H64.3752ZM63.5592 13.752L63.1944 13.5881L63.1933 13.5905L63.5592 13.752ZM61.5432 16.44L61.2906 16.1299L61.2877 16.1322L61.5432 16.44ZM58.4952 18L58.386 17.6151L58.3798 17.617L58.4952 18ZM50.6472 18L50.7612 17.6166L50.7578 17.6156L50.6472 18ZM47.5992 16.44L47.3403 16.745L47.3466 16.7501L47.5992 16.44ZM45.5832 13.728L45.2173 13.8895L45.2193 13.8939L45.5832 13.728ZM44.7912 9.864H44.391L44.3915 9.8769L44.7912 9.864ZM51.5592 3.216L51.4388 2.83456L51.4368 2.83519L51.5592 3.216ZM49.2552 4.512L49.5224 4.8097L49.5228 4.80932L49.2552 4.512ZM47.7912 6.648L47.4208 6.49707L47.4194 6.50065L47.7912 6.648ZM47.7912 12.576L47.4193 12.7234L47.4229 12.7319L47.7912 12.576ZM49.2552 14.688L48.9838 14.982L48.9918 14.989L49.2552 14.688ZM51.5592 15.984L51.4307 16.3629L51.4388 16.3654L51.5592 15.984ZM57.5832 15.984L57.4628 15.6026L57.4608 15.6032L57.5832 15.984ZM59.8872 14.712L60.1544 15.0097L60.1548 15.0093L59.8872 14.712ZM61.3512 12.6L60.9818 12.4466L60.9804 12.4502L61.3512 12.6ZM61.3512 6.72L60.9793 6.86736L60.9818 6.87335L61.3512 6.72ZM59.8872 4.584L59.6119 4.87429L59.6197 4.88132L59.8872 4.584ZM57.5832 3.24L57.4547 3.6188L57.4568 3.61947L57.5832 3.24ZM45.191 9.44462C45.2379 7.96243 45.4948 6.70261 45.9501 5.65549L45.2164 5.33651C44.7117 6.49739 44.4406 7.86157 44.3914 9.41937L45.191 9.44462ZM45.9481 5.65993C46.4216 4.60604 47.0582 3.75308 47.8547 3.09176L47.3437 2.47624C46.4443 3.22292 45.7369 4.17796 45.2184 5.33207L45.9481 5.65993ZM47.8553 3.09129C48.6734 2.4096 49.6388 1.90632 50.7578 1.58441L50.5367 0.815589C49.3197 1.16568 48.2531 1.7184 47.3432 2.47671L47.8553 3.09129ZM50.7612 1.58341C51.9027 1.24406 53.1756 1.072 54.5832 1.072V0.271999C53.1109 0.271999 51.7598 0.45194 50.5333 0.816584L50.7612 1.58341ZM54.5832 1.072C55.9895 1.072 57.2521 1.2517 58.375 1.60551L58.6154 0.842487C57.4024 0.460299 56.057 0.271999 54.5832 0.271999V1.072ZM58.3813 1.60741C59.5179 1.94534 60.4831 2.45664 61.2844 3.13692L61.8021 2.52708C60.9074 1.76736 59.8406 1.20665 58.6092 0.840584L58.3813 1.60741ZM61.2872 3.13929C62.0999 3.81655 62.7355 4.6766 63.1924 5.72749L63.9261 5.40851C63.423 4.2514 62.7146 3.28745 61.7993 2.52471L61.2872 3.13929ZM63.1953 5.73392C63.6647 6.76355 63.9288 7.99724 63.9755 9.4449L64.775 9.4191C64.7257 7.89076 64.4458 6.54845 63.9232 5.40208L63.1953 5.73392ZM63.9752 9.432V9.864H64.7752V9.432H63.9752ZM63.9755 9.8511C63.9288 11.2986 63.6647 12.5412 63.1944 13.5881L63.9241 13.9159C64.4458 12.7548 64.7257 11.4054 64.775 9.8769L63.9755 9.8511ZM63.1933 13.5905C62.737 14.6247 62.1023 15.4685 61.2906 16.1299L61.7959 16.7501C62.7122 16.0035 63.4215 15.0553 63.9252 13.9135L63.1933 13.5905ZM61.2877 16.1322C60.4874 16.7967 59.5227 17.2926 58.386 17.6152L58.6045 18.3848C59.8358 18.0354 60.9031 17.4913 61.7988 16.7478L61.2877 16.1322ZM58.3798 17.617C57.2553 17.9559 55.991 18.128 54.5832 18.128V18.928C56.0555 18.928 57.3992 18.7481 58.6107 18.383L58.3798 17.617ZM54.5832 18.128C53.1756 18.128 51.9027 17.9559 50.7612 17.6166L50.5333 18.3834C51.7598 18.7481 53.1109 18.928 54.5832 18.928V18.128ZM50.7578 17.6156C49.637 17.2932 48.6704 16.7968 47.8519 16.1299L47.3466 16.7501C48.2561 17.4912 49.3215 18.0348 50.5367 18.3844L50.7578 17.6156ZM47.8581 16.1351C47.0582 15.4559 46.4207 14.6007 45.9472 13.5621L45.2193 13.8939C45.7378 15.0313 46.4442 15.9841 47.3404 16.7449L47.8581 16.1351ZM45.9492 13.5665C45.4944 12.5356 45.2378 11.3003 45.191 9.8511L44.3915 9.8769C44.4407 11.4037 44.7121 12.7444 45.2173 13.8895L45.9492 13.5665ZM45.1912 9.864V9.432H44.3912V9.864H45.1912ZM54.5832 2.384C53.4446 2.384 52.3952 2.53253 51.4388 2.83457L51.6797 3.59743C52.5473 3.32347 53.5139 3.184 54.5832 3.184V2.384ZM51.4368 2.83519C50.4922 3.13884 49.6734 3.59752 48.9877 4.21468L49.5228 4.80932C50.1171 4.27448 50.8343 3.86916 51.6817 3.59681L51.4368 2.83519ZM48.9881 4.2143C48.3141 4.81914 47.7931 5.58335 47.4208 6.49708L48.1617 6.79892C48.4934 5.98464 48.9484 5.32485 49.5224 4.8097L48.9881 4.2143ZM47.4194 6.50065C47.0606 7.4061 46.8872 8.45829 46.8872 9.648H47.6872C47.6872 8.53371 47.8499 7.5859 48.1631 6.79535L47.4194 6.50065ZM46.8872 9.648C46.8872 10.7921 47.0613 11.8197 47.4194 12.7233L48.1631 12.4287C47.8492 11.6363 47.6872 10.7119 47.6872 9.648H46.8872ZM47.4229 12.7319C47.7956 13.6129 48.3155 14.3649 48.9839 14.9819L49.5266 14.3941C48.947 13.8591 48.4909 13.2031 48.1596 12.4201L47.4229 12.7319ZM48.9918 14.989C49.6755 15.5872 50.4907 16.0439 51.4307 16.3628L51.6878 15.6052C50.8358 15.3161 50.115 14.9088 49.5187 14.387L48.9918 14.989ZM51.4388 16.3654C52.3952 16.6675 53.4446 16.816 54.5832 16.816V16.016C53.5139 16.016 52.5473 15.8765 51.6797 15.6026L51.4388 16.3654ZM54.5832 16.816C55.7218 16.816 56.7639 16.6675 57.7057 16.3648L57.4608 15.6032C56.6106 15.8765 55.6527 16.016 54.5832 16.016V16.816ZM57.7037 16.3654C58.6624 16.0627 59.4825 15.6127 60.1544 15.0097L59.6201 14.4143C59.044 14.9313 58.3281 15.3293 57.4628 15.6026L57.7037 16.3654ZM60.1548 15.0093C60.842 14.3909 61.3644 13.6357 61.7221 12.7498L60.9804 12.4502C60.6661 13.2283 60.2125 13.8811 59.6197 14.4147L60.1548 15.0093ZM61.7207 12.7534C62.0968 11.8473 62.2792 10.8094 62.2792 9.648H61.4792C61.4792 10.7266 61.3097 11.6567 60.9818 12.4466L61.7207 12.7534ZM62.2792 9.648C62.2792 8.50179 62.0965 7.47203 61.7207 6.56665L60.9818 6.87335C61.31 7.66397 61.4792 8.58621 61.4792 9.648H62.2792ZM61.7231 6.57265C61.3658 5.67078 60.8434 4.9064 60.1548 4.28668L59.6197 4.88132C60.2111 5.4136 60.6647 6.07322 60.9794 6.86734L61.7231 6.57265ZM60.1626 4.29381C59.4913 3.65701 58.6707 3.18085 57.7097 2.86053L57.4568 3.61947C58.3198 3.90715 59.0352 4.32699 59.6119 4.87419L60.1626 4.29381ZM57.7118 2.86121C56.7681 2.54104 55.7238 2.384 54.5832 2.384V3.184C55.6507 3.184 56.6064 3.33096 57.4547 3.61879L57.7118 2.86121ZM67.7347 9.432L67.3347 9.41937V9.432H67.7347ZM68.5267 5.496L68.1618 5.33206L68.1599 5.33651L68.5267 5.496ZM70.5427 2.784L70.7982 3.09176L70.7988 3.09129L70.5427 2.784ZM73.5907 1.2L73.7013 1.58442L73.7047 1.58341L73.5907 1.2ZM81.4387 1.224L81.3185 1.60556L81.3247 1.60741L81.4387 1.224ZM84.4867 2.832L84.2278 3.13693L84.2306 3.13929L84.4867 2.832ZM86.5027 5.568L86.1358 5.72751L86.1387 5.73392L86.5027 5.568ZM87.3187 9.432H87.7189L87.7185 9.4191L87.3187 9.432ZM87.3187 9.864L87.7187 9.8769V9.864H87.3187ZM86.5027 13.752L86.1378 13.5881L86.1367 13.5905L86.5027 13.752ZM84.4867 16.44L84.234 16.1299L84.2312 16.1322L84.4867 16.44ZM81.4387 18L81.3295 17.6151L81.3233 17.617L81.4387 18ZM73.5907 18L73.7047 17.6166L73.7013 17.6156L73.5907 18ZM70.5427 16.44L70.2837 16.745L70.29 16.7501L70.5427 16.44ZM68.5267 13.728L68.1607 13.8895L68.1627 13.8939L68.5267 13.728ZM67.7347 9.864H67.3345L67.3349 9.8769L67.7347 9.864ZM74.5027 3.216L74.3822 2.83456L74.3803 2.83519L74.5027 3.216ZM72.1987 4.512L72.4659 4.8097L72.4663 4.80932L72.1987 4.512ZM70.7347 6.648L70.3642 6.49707L70.3628 6.50065L70.7347 6.648ZM70.7347 12.576L70.3627 12.7234L70.3663 12.7319L70.7347 12.576ZM72.1987 14.688L71.9273 14.982L71.9353 14.989L72.1987 14.688ZM74.5027 15.984L74.3741 16.3629L74.3822 16.3654L74.5027 15.984ZM80.5267 15.984L80.4062 15.6026L80.4043 15.6032L80.5267 15.984ZM82.8307 14.712L83.0979 15.0097L83.0983 15.0093L82.8307 14.712ZM84.2947 12.6L83.9252 12.4466L83.9238 12.4502L84.2947 12.6ZM84.2947 6.72L83.9228 6.86736L83.9252 6.87335L84.2947 6.72ZM82.8307 4.584L82.5553 4.87429L82.5631 4.88132L82.8307 4.584ZM80.5267 3.24L80.3982 3.6188L80.4002 3.61947L80.5267 3.24ZM68.1345 9.44462C68.1813 7.96243 68.4382 6.70261 68.8935 5.65549L68.1599 5.33651C67.6551 6.49739 67.3841 7.86157 67.3349 9.41937L68.1345 9.44462ZM68.8916 5.65993C69.365 4.60604 70.0016 3.75308 70.7982 3.09176L70.2872 2.47624C69.3878 3.22292 68.6803 4.17796 68.1618 5.33207L68.8916 5.65993ZM70.7988 3.09129C71.6168 2.4096 72.5822 1.90632 73.7013 1.58441L73.4801 0.815589C72.2631 1.16568 71.1966 1.7184 70.2866 2.47671L70.7988 3.09129ZM73.7047 1.58341C74.8461 1.24406 76.119 1.072 77.5267 1.072V0.271999C76.0543 0.271999 74.7032 0.45194 73.4767 0.816584L73.7047 1.58341ZM77.5267 1.072C78.9329 1.072 80.1955 1.2517 81.3185 1.60551L81.5589 0.842487C80.3459 0.460299 79.0005 0.271999 77.5267 0.271999V1.072ZM81.3247 1.60741C82.4614 1.94534 83.4266 2.45664 84.2278 3.13692L84.7456 2.52708C83.8508 1.76736 82.784 1.20665 81.5527 0.840584L81.3247 1.60741ZM84.2306 3.13929C85.0433 3.81655 85.6789 4.6766 86.1359 5.72749L86.8695 5.40851C86.3664 4.2514 85.658 3.28745 84.7428 2.52471L84.2306 3.13929ZM86.1387 5.73392C86.6081 6.76355 86.8722 7.99724 86.9189 9.4449L87.7185 9.4191C87.6692 7.89076 87.3893 6.54845 86.8667 5.40208L86.1387 5.73392ZM86.9187 9.432V9.864H87.7187V9.432H86.9187ZM86.9189 9.8511C86.8722 11.2986 86.6081 12.5412 86.1378 13.5881L86.8676 13.9159C87.3892 12.7548 87.6692 11.4054 87.7185 9.8769L86.9189 9.8511ZM86.1367 13.5905C85.6805 14.6247 85.0458 15.4685 84.234 16.1299L84.7394 16.7501C85.6556 16.0035 86.3649 15.0553 86.8687 13.9135L86.1367 13.5905ZM84.2312 16.1322C83.4308 16.7967 82.4662 17.2926 81.3295 17.6152L81.5479 18.3848C82.7792 18.0354 83.8466 17.4913 84.7422 16.7478L84.2312 16.1322ZM81.3233 17.617C80.1987 17.9559 78.9344 18.128 77.5267 18.128V18.928C78.9989 18.928 80.3426 18.7481 81.5541 18.383L81.3233 17.617ZM77.5267 18.128C76.119 18.128 74.8461 17.9559 73.7047 17.6166L73.4767 18.3834C74.7032 18.7481 76.0543 18.928 77.5267 18.928V18.128ZM73.7013 17.6156C72.5804 17.2932 71.6138 16.7968 70.7954 16.1299L70.29 16.7501C71.1995 17.4912 72.2649 18.0348 73.4801 18.3844L73.7013 17.6156ZM70.8016 16.1351C70.0017 15.4559 69.3641 14.6007 68.8906 13.5621L68.1627 13.8939C68.6813 15.0313 69.3877 15.9841 70.2838 16.7449L70.8016 16.1351ZM68.8927 13.5665C68.4378 12.5356 68.1812 11.3003 68.1345 9.8511L67.3349 9.8769C67.3841 11.4037 67.6555 12.7444 68.1607 13.8895L68.8927 13.5665ZM68.1347 9.864V9.432H67.3347V9.864H68.1347ZM77.5267 2.384C76.388 2.384 75.3387 2.53253 74.3822 2.83457L74.6231 3.59743C75.4907 3.32347 76.4574 3.184 77.5267 3.184V2.384ZM74.3803 2.83519C73.4356 3.13884 72.6168 3.59752 71.9311 4.21468L72.4663 4.80932C73.0605 4.27448 73.7778 3.86916 74.6251 3.59681L74.3803 2.83519ZM71.9315 4.2143C71.2576 4.81914 70.7365 5.58335 70.3643 6.49708L71.1051 6.79892C71.4369 5.98464 71.8918 5.32485 72.4659 4.8097L71.9315 4.2143ZM70.3628 6.50065C70.0041 7.4061 69.8307 8.45829 69.8307 9.648H70.6307C70.6307 8.53371 70.7933 7.5859 71.1066 6.79535L70.3628 6.50065ZM69.8307 9.648C69.8307 10.7921 70.0048 11.8197 70.3628 12.7233L71.1066 12.4287C70.7926 11.6363 70.6307 10.7119 70.6307 9.648H69.8307ZM70.3663 12.7319C70.739 13.6129 71.2589 14.3649 71.9274 14.9819L72.47 14.3941C71.8904 13.8591 71.4343 13.2031 71.1031 12.4201L70.3663 12.7319ZM71.9353 14.989C72.6189 15.5872 73.4341 16.0439 74.3742 16.3628L74.6312 15.6052C73.7792 15.3161 73.0584 14.9088 72.4621 14.387L71.9353 14.989ZM74.3822 16.3654C75.3387 16.6675 76.388 16.816 77.5267 16.816V16.016C76.4574 16.016 75.4907 15.8765 74.6231 15.6026L74.3822 16.3654ZM77.5267 16.816C78.6652 16.816 79.7074 16.6675 80.6491 16.3648L80.4043 15.6032C79.554 15.8765 78.5961 16.016 77.5267 16.016V16.816ZM80.6471 16.3654C81.6058 16.0627 82.4259 15.6127 83.0979 15.0097L82.5635 14.4143C81.9875 14.9313 81.2716 15.3293 80.4062 15.6026L80.6471 16.3654ZM83.0983 15.0093C83.7854 14.3909 84.3078 13.6357 84.6656 12.7498L83.9238 12.4502C83.6096 13.2283 83.156 13.8811 82.5631 14.4147L83.0983 15.0093ZM84.6641 12.7534C85.0402 11.8473 85.2227 10.8094 85.2227 9.648H84.4227C84.4227 10.7266 84.2532 11.6567 83.9252 12.4466L84.6641 12.7534ZM85.2227 9.648C85.2227 8.50179 85.0399 7.47203 84.6641 6.56665L83.9252 6.87335C84.2534 7.66397 84.4227 8.58621 84.4227 9.648H85.2227ZM84.6666 6.57265C84.3092 5.67078 83.7868 4.9064 83.0983 4.28668L82.5631 4.88132C83.1545 5.4136 83.6082 6.07322 83.9228 6.86734L84.6666 6.57265ZM83.106 4.29381C82.4348 3.65701 81.6141 3.18085 80.6532 2.86053L80.4002 3.61947C81.2632 3.90715 81.9786 4.32699 82.5554 4.87419L83.106 4.29381ZM80.6552 2.86121C79.7116 2.54104 78.6673 2.384 77.5267 2.384V3.184C78.5941 3.184 79.5498 3.33096 80.3982 3.61879L80.6552 2.86121ZM93.9901 10.68V10.28H93.5901V10.68H93.9901ZM93.9901 18V18.4H94.3901V18H93.9901ZM91.6381 18H91.2381V18.4H91.6381V18ZM91.6381 1.2V0.799999H91.2381V1.2H91.6381ZM106.782 1.2H107.182V0.799999H106.782V1.2ZM106.782 3.312V3.712H107.182V3.312H106.782ZM93.9901 3.312V2.912H93.5901V3.312H93.9901ZM93.9901 8.568H93.5901V8.968H93.9901V8.568ZM104.358 8.568H104.758V8.168H104.358V8.568ZM104.358 10.68V11.08H104.758V10.68H104.358ZM93.5901 10.68V18H94.3901V10.68H93.5901ZM93.9901 17.6H91.6381V18.4H93.9901V17.6ZM92.0381 18V1.2H91.2381V18H92.0381ZM91.6381 1.6H106.782V0.799999H91.6381V1.6ZM106.382 1.2V3.312H107.182V1.2H106.382ZM106.782 2.912H93.9901V3.712H106.782V2.912ZM93.5901 3.312V8.568H94.3901V3.312H93.5901ZM93.9901 8.968H104.358V8.168H93.9901V8.968ZM103.958 8.568V10.68H104.758V8.568H103.958ZM104.358 10.28H93.9901V11.08H104.358V10.28ZM126.503 15.888H126.903V15.488H126.503V15.888ZM126.503 18V18.4H126.903V18H126.503ZM111.863 18H111.463V18.4H111.863V18ZM111.863 15.888V15.488H111.463V15.888H111.863ZM117.983 15.888V16.288H118.383V15.888H117.983ZM117.983 13.032H118.383V12.9083L118.313 12.8063L117.983 13.032ZM109.895 1.2V0.799999H109.137L109.565 1.42573L109.895 1.2ZM112.751 1.2L113.082 0.975439L112.963 0.799999H112.751V1.2ZM119.231 10.752L118.9 10.9766L119.23 11.4627L119.561 10.9777L119.231 10.752ZM125.759 1.2V0.799999H125.548L125.429 0.974304L125.759 1.2ZM128.591 1.2L128.92 1.42765L129.354 0.799999H128.591V1.2ZM120.335 13.128L120.006 12.9004L119.935 13.0031V13.128H120.335ZM120.335 15.888H119.935V16.288H120.335V15.888ZM126.103 15.888V18H126.903V15.888H126.103ZM126.503 17.6H111.863V18.4H126.503V17.6ZM112.263 18V15.888H111.463V18H112.263ZM111.863 16.288H117.983V15.488H111.863V16.288ZM118.383 15.888V13.032H117.583V15.888H118.383ZM118.313 12.8063L110.225 0.974269L109.565 1.42573L117.653 13.2577L118.313 12.8063ZM109.895 1.6H112.751V0.799999H109.895V1.6ZM112.42 1.42456L118.9 10.9766L119.562 10.5274L113.082 0.975439L112.42 1.42456ZM119.561 10.9777L126.089 1.42569L125.429 0.974304L118.901 10.5263L119.561 10.9777ZM125.759 1.6H128.591V0.799999H125.759V1.6ZM128.262 0.972349L120.006 12.9004L120.664 13.3556L128.92 1.42765L128.262 0.972349ZM119.935 13.128V15.888H120.735V13.128H119.935ZM120.335 16.288H126.503V15.488H120.335V16.288Z" fill="black"/>
</g>
<defs>
<clipPath id="clip0_2848_9958">
<rect width="132" height="20" fill="white" transform="translate(0.5)"/>
</clipPath>
</defs>
</svg>
